<svg width="89" height="89" viewBox="0 0 89 89" fill="none" xmlns="http://www.w3.org/2000/svg">
<rect width="89" height="89" fill="url(#paint0_linear)"/>
<path d="M66.8556 52.9351C67.7403 50.99 63.0167 51.0018 62.0501 52.9351L61.6736 56.6446C57.4993 52.778 55.7075 55.1734 55.6011 56.6446L55.7075 60.6348C50.8743 58.7015 52.6415 64.4248 52.6415 64.6491C53.3503 66.4682 53.5476 66.9665 52.6415 67.34C48.0976 69.214 43.911 69.1751 39.0165 68.1617C29.3572 66.1642 21.7051 58.3368 19.9773 48.684C18.5092 40.4896 21.0069 32.477 26.8271 26.699C32.6506 20.921 40.6924 18.4851 48.8803 20.0148C58.1758 21.7492 65.8668 29.1057 68.0137 38.3168C69.3681 44.1337 68.9394 48.3537 66.8556 52.9351ZM71.1739 37.5795C68.7412 27.1342 60.0206 18.7904 49.478 16.8221C40.2214 15.091 31.1306 17.8517 24.5406 24.393C17.9506 30.9343 15.1217 39.9991 16.7813 49.2589C18.7398 60.2011 27.4117 69.0808 38.3604 71.3446C43.8851 72.4814 49.5267 71.965 54.6746 69.8408C57.6408 68.368 53.7262 63.3901 54.6746 63.6825L56.6742 63.2212C58.3661 63.0735 55.2262 52.9351 62.4741 60.3213C63.4712 60.3213 64.4074 60.3213 64.7064 58.9019C64.4074 56.6446 63.4407 55.488 64.7064 55.1734L66.8556 56.3992C67.3073 56.4547 68.6698 57.174 68.9394 56.6446C71.9339 50.7432 72.7069 44.15 71.1739 37.5795Z" fill="white"/>
<circle cx="27.6747" cy="37.1217" r="0.966648" fill="white"/>
<circle cx="35.4078" cy="29.3887" r="2.89994" fill="white"/>
<circle cx="49.9079" cy="34.2219" r="1.9333" fill="white"/>
<circle cx="39.2743" cy="40.9884" r="0.966648" fill="white"/>
<circle cx="61.5075" cy="38.0883" r="1.9333" fill="white"/>
<circle cx="35.4078" cy="52.5882" r="2.89994" fill="white"/>
<circle cx="49.9079" cy="49.6882" r="1.9333" fill="white"/>
<circle cx="43.1415" cy="62.2545" r="0.966648" fill="white"/>
<circle cx="47.0074" cy="23.5887" r="2.89994" fill="white"/>
<defs>
<linearGradient id="paint0_linear" x1="98.5" y1="77.5" x2="-7.5" y2="-4.04675e-07" gradientUnits="userSpaceOnUse">
<stop stop-color="#FFAD01"/>
<stop offset="0.317708" stop-color="#FF6494"/>
<stop offset="0.611544" stop-color="#747DFF"/>
<stop offset="1" stop-color="#01C57D"/>
</linearGradient>
</defs>
</svg>
