<svg width="402" height="90" viewBox="0 0 402 90" fill="none" xmlns="http://www.w3.org/2000/svg">
<path d="M135.037 69.6443C134.869 69.9972 134.731 70.3109 134.612 70.5854C134.504 70.8599 134.376 71.0853 134.228 71.2618C134.089 71.4383 133.912 71.5755 133.704 71.6735C133.497 71.7716 133.211 71.8108 132.856 71.8108H127.26C125.75 71.8108 125 71.0952 125 69.6541V27.7251C125 27.4114 125.059 27.1173 125.188 26.8526C125.306 26.5879 125.474 26.3625 125.671 26.1762C125.868 25.99 126.095 25.8429 126.352 25.7449C126.609 25.6468 126.855 25.588 127.102 25.588H133.517C134.237 25.588 134.8 25.7939 135.214 26.2056C135.629 26.6174 135.836 27.1271 135.836 27.7251V39.4009C136.359 38.8421 136.932 38.3226 137.534 37.8618C138.136 37.3912 138.787 36.9991 139.498 36.6658C140.208 36.3423 140.978 36.0776 141.827 35.8913C142.675 35.7051 143.613 35.607 144.649 35.607C147.215 35.607 149.574 36.0776 151.725 37.0285C153.887 37.9696 155.732 39.2735 157.291 40.9302C158.841 42.587 160.065 44.5281 160.933 46.7633C161.812 48.9984 162.246 51.4198 162.246 54.0177C162.246 56.596 161.812 59.0174 160.933 61.2624C160.055 63.5074 158.841 65.4582 157.291 67.115C155.742 68.7718 153.887 70.0756 151.725 71.0265C149.564 71.9775 147.205 72.4578 144.649 72.4578C143.692 72.4578 142.774 72.3402 141.896 72.0951C141.017 71.85 140.198 71.5363 139.429 71.1442C138.659 70.752 137.948 70.3109 137.297 69.8109C136.645 69.3109 136.063 68.811 135.56 68.311L135.037 69.6443ZM152.081 54.0177C152.081 52.8217 151.883 51.6747 151.498 50.5963C151.113 49.5082 150.561 48.5573 149.85 47.7338C149.13 46.9103 148.281 46.2633 147.284 45.7829C146.288 45.3026 145.162 45.0673 143.919 45.0673C142.675 45.0673 141.511 45.3026 140.425 45.7829C139.34 46.2633 138.402 46.9103 137.613 47.7338C136.823 48.5573 136.191 49.5082 135.738 50.5963C135.274 51.6845 135.047 52.8217 135.047 54.0177V54.4099C135.106 55.5863 135.372 56.694 135.856 57.7234C136.34 58.7527 136.971 59.6448 137.761 60.3997C138.55 61.1546 139.478 61.7526 140.534 62.1839C141.59 62.6153 142.715 62.8309 143.929 62.8309C145.172 62.8309 146.297 62.6054 147.294 62.1447C148.291 61.6839 149.15 61.0663 149.86 60.2821C150.581 59.4978 151.123 58.5665 151.508 57.4881C151.883 56.3999 152.081 55.2529 152.081 54.0177Z" fill="white"/>
<path d="M167.921 24.1567C167.921 23.3725 168.088 22.8137 168.434 22.4902C168.779 22.1667 169.302 22 170.013 22H176.566C177.227 22 177.76 22.1667 178.165 22.4902C178.569 22.8137 178.776 23.3725 178.776 24.1567V29.627C178.776 29.8525 178.727 30.0976 178.619 30.3525C178.52 30.6171 178.372 30.872 178.184 31.1073C177.997 31.3524 177.76 31.5485 177.493 31.7151C177.217 31.872 176.911 31.9504 176.576 31.9504H170.023C168.631 31.9504 167.93 31.1759 167.93 29.6172V24.1567H167.921ZM167.921 38.352C167.921 37.754 168.088 37.2344 168.434 36.8129C168.769 36.3815 169.302 36.1658 170.013 36.1658H176.487C176.714 36.1658 176.961 36.2149 177.217 36.3227C177.484 36.4207 177.73 36.5776 177.947 36.7737C178.174 36.9697 178.362 37.1952 178.53 37.4599C178.698 37.7246 178.767 38.0187 178.767 38.3618V69.6541C178.767 70.3697 178.569 70.8991 178.174 71.2716C177.78 71.6344 177.217 71.8206 176.477 71.8206H170.003C168.611 71.8206 167.911 71.105 167.911 69.6639V38.352H167.921Z" fill="white"/>
<path d="M190.925 60.7233C191.438 61.233 191.981 61.6546 192.573 61.9977C193.166 62.3408 193.738 62.6251 194.281 62.8408C194.824 63.0565 195.307 63.2133 195.722 63.3015C196.136 63.3898 196.422 63.4388 196.57 63.4388C196.926 63.4388 197.389 63.429 197.942 63.3996C198.495 63.3702 199.028 63.2917 199.541 63.1447C200.054 63.0074 200.488 62.7722 200.854 62.4585C201.219 62.1447 201.406 61.6938 201.406 61.1154C201.406 60.5958 201.298 60.1743 201.1 59.8704C200.893 59.5567 200.587 59.3018 200.192 59.0861C199.798 58.8704 199.314 58.6744 198.742 58.5077C198.169 58.3411 197.518 58.145 196.807 57.9195C194.547 57.3215 192.682 56.5961 191.211 55.753C189.741 54.9099 188.576 53.9688 187.718 52.9296C186.859 51.8904 186.267 50.7729 185.922 49.5769C185.586 48.3808 185.408 47.1162 185.408 45.7928C185.408 44.2438 185.714 42.8321 186.336 41.5577C186.958 40.2833 187.846 39.1951 188.991 38.2932C190.136 37.3815 191.517 36.6854 193.116 36.1855C194.715 35.6855 196.501 35.4404 198.455 35.4404C199.64 35.4404 200.755 35.5385 201.791 35.7345C202.827 35.9306 203.814 36.2443 204.762 36.656C205.699 37.0776 206.617 37.6168 207.515 38.2834C208.413 38.95 209.301 39.7343 210.19 40.6558C210.505 41.0283 210.673 41.3813 210.683 41.7048C210.693 42.0283 210.476 42.3812 210.051 42.7537C209.321 43.3517 208.611 43.9399 207.949 44.5183C207.278 45.0967 206.587 45.7437 205.877 46.4594C205.65 46.6456 205.423 46.7633 205.196 46.8123C204.969 46.8613 204.752 46.8515 204.545 46.8025C204.337 46.7437 204.14 46.6555 203.952 46.5182C203.765 46.3908 203.597 46.2241 203.439 46.0378C202.778 45.3124 202.028 44.8124 201.179 44.5673C200.33 44.3125 199.541 44.185 198.811 44.185C197.883 44.185 197.153 44.3419 196.61 44.6654C196.067 44.9889 195.81 45.4692 195.85 46.1261C195.889 46.6162 196.067 46.9888 196.403 47.2633C196.738 47.5378 197.133 47.7534 197.616 47.9201C198.1 48.0867 198.603 48.224 199.146 48.3318C199.679 48.4397 200.173 48.5475 200.627 48.6847C202.324 49.2239 203.873 49.8219 205.285 50.4494C206.696 51.0866 207.92 51.8708 208.956 52.7924C209.992 53.7139 210.802 54.8314 211.374 56.1157C211.946 57.4097 212.233 58.9783 212.233 60.8311C212.233 62.6839 211.857 64.3407 211.117 65.8014C210.377 67.2621 209.351 68.4875 208.048 69.4777C206.745 70.4678 205.206 71.2226 203.429 71.752C201.653 72.2716 199.728 72.5363 197.676 72.5363C196.511 72.5363 195.317 72.4383 194.113 72.2324C192.909 72.0265 191.744 71.6932 190.609 71.2325C189.475 70.7717 188.409 70.1835 187.392 69.4678C186.376 68.7522 185.468 67.8699 184.678 66.8406C184.471 66.5759 184.313 66.3014 184.214 66.0171C184.106 65.723 184.066 65.4387 184.076 65.1642C184.086 64.8799 184.145 64.625 184.244 64.3897C184.343 64.1544 184.51 63.9584 184.737 63.7819L188.379 60.1645C188.833 59.7919 189.228 59.6547 189.583 59.7723C189.929 59.8802 190.373 60.1939 190.925 60.7233Z" fill="white"/>
<path d="M241.238 60.8311C241.504 60.6448 241.751 60.5272 241.988 60.4782C242.224 60.4292 242.402 60.4096 242.54 60.4096C242.856 60.4096 243.152 60.4782 243.419 60.6056C243.685 60.7331 243.952 61.0174 244.238 61.4487L247.406 66.1935C247.495 66.3406 247.593 66.517 247.672 66.7033C247.751 66.8896 247.8 67.0366 247.8 67.1543C247.8 67.5856 247.662 67.9385 247.386 68.2032C247.11 68.4777 246.814 68.713 246.498 68.9189C244.948 69.9874 243.261 70.8403 241.425 71.4873C239.589 72.1344 237.645 72.4579 235.592 72.4579C233.895 72.4579 232.267 72.2422 230.688 71.8108C229.118 71.3795 227.648 70.7717 226.296 69.9678C224.944 69.1738 223.7 68.2228 222.565 67.1053C221.43 65.9877 220.473 64.7524 219.684 63.3898C218.894 62.0271 218.272 60.5468 217.828 58.9685C217.384 57.3901 217.167 55.7334 217.167 54.0178C217.167 52.3022 217.384 50.6454 217.828 49.0475C218.272 47.4593 218.884 45.9888 219.684 44.6262C220.473 43.2733 221.43 42.0381 222.565 40.9205C223.7 39.8127 224.934 38.8618 226.296 38.0677C227.648 37.2835 229.118 36.6756 230.688 36.2443C232.257 35.813 233.895 35.5973 235.592 35.5973C237.645 35.5973 239.54 35.8718 241.287 36.411C243.034 36.9501 244.662 37.754 246.192 38.8226L246.103 38.7344C246.517 38.9794 246.843 39.2637 247.09 39.5872C247.337 39.9108 247.455 40.3225 247.455 40.8127C247.455 41.146 247.337 41.4989 247.119 41.8518L244.603 46.0869C244.08 47.0084 243.438 47.4593 242.678 47.4593C242.511 47.4593 242.303 47.4201 242.057 47.3319C241.81 47.2437 241.543 47.1064 241.238 46.9005C240.409 46.3614 239.52 45.9104 238.563 45.5673C237.616 45.2242 236.599 45.0477 235.523 45.0477C234.339 45.0477 233.244 45.283 232.247 45.7634C231.25 46.2437 230.391 46.8907 229.691 47.7142C228.98 48.5377 228.437 49.4886 228.043 50.5768C227.648 51.665 227.451 52.8022 227.451 53.9982C227.451 55.2334 227.648 56.3902 228.043 57.4686C228.437 58.5469 228.99 59.4782 229.691 60.2625C230.401 61.0468 231.25 61.6742 232.247 62.1251C233.244 62.5859 234.339 62.8114 235.523 62.8114C236.599 62.8114 237.606 62.6251 238.543 62.2526C239.491 61.8899 240.389 61.4095 241.238 60.8311Z" fill="white"/>
<path d="M252.054 54.0178C252.054 52.2924 252.271 50.6454 252.715 49.0475C253.159 47.4593 253.781 45.9888 254.58 44.6262C255.38 43.2733 256.337 42.0381 257.462 40.9205C258.587 39.8127 259.831 38.8618 261.203 38.0677C262.574 37.2835 264.065 36.6756 265.653 36.2443C267.242 35.813 268.91 35.5973 270.637 35.5973C273.193 35.5973 275.601 36.0678 277.852 37.0188C280.102 37.9599 282.056 39.2637 283.724 40.9205C285.392 42.5773 286.704 44.5183 287.681 46.7535C288.648 48.9887 289.132 51.4101 289.132 54.008C289.132 55.7334 288.915 57.3803 288.471 58.9587C288.027 60.537 287.405 62.0173 286.605 63.38C285.806 64.7426 284.839 65.9877 283.724 67.0954C282.599 68.213 281.355 69.1639 279.983 69.958C278.612 70.7521 277.131 71.3697 275.562 71.801C273.993 72.2324 272.345 72.4481 270.627 72.4481C268.891 72.4481 267.233 72.2324 265.644 71.801C264.055 71.3697 262.564 70.7619 261.193 69.958C259.821 69.1639 258.568 68.213 257.452 67.0954C256.337 65.9779 255.37 64.7426 254.571 63.38C253.771 62.0173 253.149 60.537 252.705 58.9587C252.281 57.3901 252.054 55.7334 252.054 54.0178ZM262.367 54.0178C262.367 55.253 262.564 56.4098 262.949 57.4882C263.334 58.5665 263.877 59.4978 264.588 60.2821C265.298 61.0664 266.147 61.6938 267.163 62.1447C268.17 62.6055 269.305 62.831 270.568 62.831C271.792 62.831 272.897 62.6055 273.884 62.1447C274.871 61.684 275.71 61.0664 276.401 60.2821C277.092 59.4978 277.615 58.5665 277.98 57.4882C278.345 56.4098 278.533 55.253 278.533 54.0178C278.533 52.8218 278.345 51.6748 277.98 50.5964C277.615 49.5082 277.082 48.5573 276.401 47.7338C275.71 46.9103 274.871 46.2633 273.884 45.783C272.897 45.3026 271.792 45.0673 270.568 45.0673C269.305 45.0673 268.17 45.3026 267.163 45.783C266.157 46.2633 265.298 46.9103 264.588 47.7338C263.877 48.5573 263.334 49.5082 262.949 50.5964C262.564 51.6748 262.367 52.8218 262.367 54.0178Z" fill="white"/>
<path d="M294.748 24.1567C294.748 23.3725 294.915 22.8137 295.261 22.4902C295.606 22.1667 296.129 22 296.84 22H303.393C304.054 22 304.587 22.1667 304.992 22.4902C305.396 22.8137 305.603 23.3725 305.603 24.1567V29.627C305.603 29.8525 305.554 30.0976 305.446 30.3525C305.337 30.6171 305.199 30.872 305.011 31.1073C304.824 31.3426 304.597 31.5485 304.32 31.7151C304.044 31.8818 303.738 31.9504 303.403 31.9504H296.85C295.458 31.9504 294.757 31.1759 294.757 29.6172V24.1567H294.748ZM294.748 38.352C294.748 37.754 294.915 37.2344 295.261 36.8129C295.596 36.3815 296.129 36.1658 296.84 36.1658H303.304C303.531 36.1658 303.778 36.2149 304.044 36.3227C304.311 36.4207 304.547 36.5776 304.774 36.7737C305.001 36.9697 305.189 37.1952 305.357 37.4599C305.515 37.7246 305.594 38.0187 305.594 38.3618V69.6541C305.594 70.3697 305.396 70.8991 305.001 71.2716C304.607 71.6344 304.044 71.8206 303.304 71.8206H296.84C295.448 71.8206 294.748 71.105 294.748 69.6639V38.352Z" fill="white"/>
<path d="M314.555 30.6074C314.555 30.029 314.752 29.5878 315.137 29.3035C315.522 29.0094 316.074 28.735 316.785 28.4801L323.2 26.2645C323.289 26.2449 323.387 26.2351 323.466 26.2351C323.545 26.2351 323.634 26.2351 323.703 26.2351C324.404 26.2351 324.868 26.441 325.105 26.8429C325.341 27.2448 325.46 27.7742 325.46 28.431L325.43 36.1463H329.299C329.901 36.1463 330.394 36.3228 330.769 36.6757C331.144 37.0286 331.332 37.5678 331.332 38.2736V43.6851C331.332 44.4693 331.144 45.0477 330.769 45.4105C330.394 45.7732 329.901 45.9594 329.299 45.9594H325.43L325.46 69.6444C325.46 70.36 325.253 70.8894 324.838 71.2619C324.424 71.6344 323.851 71.8109 323.111 71.8109H316.726C315.275 71.8109 314.555 71.0952 314.555 69.6541L314.525 45.9692H311.614C310.163 45.9692 309.442 45.2144 309.442 43.6949V38.2834C309.442 36.8619 310.163 36.1463 311.614 36.1463H314.525L314.555 30.6074Z" fill="white"/>
<path d="M334.47 70.7423C334.411 70.4776 334.46 70.2227 334.608 69.9678C334.756 69.7129 334.895 69.5071 335.003 69.3404L346.244 53.5962L335.595 38.5579C335.408 38.3128 335.25 38.0481 335.112 37.7736C334.983 37.4893 334.924 37.2344 334.954 36.9991C334.983 36.7639 335.102 36.5678 335.319 36.4109C335.536 36.2541 335.901 36.1757 336.405 36.1757H345.277C345.593 36.1757 345.879 36.3129 346.106 36.5874C346.343 36.8619 346.609 37.205 346.915 37.6363L352.313 46.3123C352.669 45.8025 353.083 45.1653 353.557 44.3909C354.031 43.6164 354.514 42.8125 355.008 41.9792C355.511 41.146 355.985 40.3421 356.449 39.548C356.912 38.7539 357.307 38.0971 357.653 37.5579C357.968 37.0678 358.274 36.7246 358.541 36.509C358.817 36.2933 359.143 36.1855 359.518 36.1855H368.469C368.696 36.1855 368.903 36.2345 369.101 36.3227C369.298 36.4109 369.456 36.5482 369.565 36.7148C369.673 36.8815 369.722 37.0776 369.703 37.303C369.683 37.5285 369.565 37.7736 369.338 38.0285L358.294 53.5178L369.288 68.7816C369.515 69.1051 369.703 69.4384 369.87 69.7913C370.028 70.1443 370.097 70.4776 370.078 70.7717C370.058 71.0756 369.92 71.3207 369.663 71.5167C369.407 71.7128 368.982 71.8108 368.38 71.8108H359.222C358.373 71.8108 357.741 71.3207 357.327 70.3501L352.294 61.3703L347.211 70.4678C347.004 70.8795 346.737 71.203 346.422 71.4481C346.096 71.6932 345.79 71.8108 345.484 71.8108H335.655C335.388 71.8108 335.161 71.752 334.974 71.6442C334.786 71.5363 334.628 71.3305 334.49 71.0266L334.47 70.7423Z" fill="white"/>
<path d="M380.49 60.7233C381.003 61.233 381.546 61.6546 382.138 61.9977C382.73 62.3408 383.302 62.6251 383.845 62.8408C384.388 63.0565 384.871 63.2133 385.286 63.3015C385.7 63.3996 385.987 63.4388 386.135 63.4388C386.49 63.4388 386.954 63.429 387.506 63.3996C388.059 63.3702 388.592 63.2917 389.105 63.1447C389.618 63.0074 390.053 62.7722 390.418 62.4585C390.783 62.1447 390.97 61.6938 390.97 61.1154C390.97 60.5958 390.862 60.1743 390.655 59.8704C390.447 59.5567 390.151 59.3018 389.747 59.0861C389.352 58.8704 388.868 58.6744 388.296 58.5077C387.724 58.3411 387.072 58.145 386.362 57.9195C384.102 57.3215 382.236 56.5961 380.766 55.753C379.295 54.9099 378.131 53.9688 377.272 52.9296C376.414 51.8904 375.822 50.7729 375.476 49.5769C375.141 48.3808 374.963 47.1162 374.963 45.7928C374.963 44.2438 375.279 42.8321 375.891 41.5577C376.512 40.2833 377.401 39.1951 378.545 38.2932C379.69 37.3913 381.072 36.6854 382.671 36.1855C384.269 35.6855 386.046 35.4404 388.01 35.4404C389.194 35.4404 390.309 35.5385 391.346 35.7345C392.382 35.9306 393.369 36.2443 394.316 36.656C395.254 37.0776 396.171 37.6168 397.07 38.2834C397.968 38.95 398.856 39.7343 399.744 40.6558C400.06 41.0283 400.228 41.3813 400.237 41.7048C400.247 42.0283 400.03 42.3812 399.606 42.7537C398.876 43.3517 398.165 43.9399 397.504 44.5183C396.833 45.0967 396.142 45.7437 395.431 46.4594C395.204 46.6456 394.977 46.7633 394.75 46.8123C394.523 46.8613 394.306 46.8515 394.099 46.8025C393.892 46.7437 393.694 46.6555 393.507 46.5182C393.319 46.3908 393.152 46.2241 392.994 46.0378C392.332 45.3124 391.582 44.8124 390.734 44.5673C389.885 44.3125 389.095 44.185 388.365 44.185C387.437 44.185 386.707 44.3419 386.164 44.6654C385.621 44.9889 385.365 45.4692 385.404 46.1261C385.444 46.6162 385.621 46.9888 385.957 47.2633C386.283 47.5378 386.687 47.7534 387.171 47.9201C387.655 48.0867 388.158 48.224 388.701 48.3318C389.234 48.4397 389.727 48.5475 390.181 48.6847C391.878 49.2239 393.428 49.8219 394.839 50.4494C396.25 51.0866 397.474 51.8708 398.51 52.7924C399.547 53.7139 400.356 54.8314 400.928 56.1157C401.501 57.4097 401.787 58.9783 401.787 60.8311C401.787 62.6839 401.412 64.3407 400.672 65.8014C399.932 67.2621 398.905 68.4875 397.602 69.4777C396.3 70.4678 394.76 71.2226 392.984 71.752C391.207 72.2814 389.283 72.5363 387.23 72.5363C386.066 72.5363 384.871 72.4383 383.667 72.2324C382.463 72.0265 381.289 71.6932 380.164 71.2325C379.029 70.7717 377.963 70.1835 376.947 69.4678C375.93 68.7522 375.022 67.8699 374.233 66.8406C374.025 66.5759 373.867 66.3014 373.769 66.0171C373.67 65.7328 373.621 65.4387 373.631 65.1642C373.641 64.8799 373.7 64.625 373.798 64.3897C373.897 64.1544 374.065 63.9584 374.292 63.7819L377.934 60.1645C378.387 59.7919 378.782 59.6547 379.138 59.7723C379.493 59.8802 379.947 60.1939 380.49 60.7233Z" fill="white"/>
<rect width="89" height="89" rx="32" fill="white"/>
<path d="M68.3618 46.7528C68.7129 44.6449 64.1534 45.8789 63.72 47.9965L64.3165 51.6771C59.2837 49.0226 58.1729 51.8001 58.4509 53.2488L59.5864 57.0754C54.4175 56.4589 57.6057 61.5299 57.6638 61.7465C58.8193 63.3202 59.1389 63.7504 58.3602 64.3457C54.4563 67.3319 50.4023 68.3779 45.4122 68.6659C35.5651 69.2365 26.1479 63.6562 21.9805 54.7796C18.4416 47.2443 18.7804 38.8583 22.9069 31.7708C27.0364 24.6824 34.1737 20.2482 42.4786 19.6066C51.9063 18.876 61.2392 23.9913 65.6969 32.3328C68.5107 37.601 69.1888 41.7881 68.3618 46.7528ZM68.5586 30.8027C63.5054 21.343 52.9224 15.5405 42.2296 16.368C32.8404 17.0916 24.7738 22.1112 20.1014 30.1352C15.429 38.1592 15.0426 47.6473 19.0423 56.162C23.7661 66.2245 34.4408 72.5572 45.6023 71.9101C51.2329 71.5783 56.5486 69.6193 60.9714 66.2352C63.4553 64.0447 58.3858 60.2497 59.3775 60.2866L61.1896 59.3236C62.7855 58.743 57.1287 49.7627 66.0413 55.0213C67.0044 54.7632 67.9087 54.5209 67.8302 53.0726C66.9571 50.9696 65.724 50.1026 66.8652 49.471L69.2584 50.0988C69.7091 50.0355 71.2113 50.3777 71.3346 49.7966C72.6998 43.3212 71.74 36.7526 68.5586 30.8027Z" fill="url(#paint0_linear)"/>
<circle cx="26.4229" cy="41.6192" r="0.966648" transform="rotate(-15 26.4229 41.6192)" fill="url(#paint1_linear)"/>
<circle cx="31.891" cy="32.148" r="2.89994" transform="rotate(-15 31.891 32.148)" fill="url(#paint2_linear)"/>
<circle cx="47.1478" cy="33.0637" r="1.9333" transform="rotate(-15 47.1478 33.0637)" fill="url(#paint3_linear)"/>
<circle cx="38.6282" cy="42.3517" r="0.966648" transform="rotate(-15 38.6282 42.3517)" fill="url(#paint4_linear)"/>
<circle cx="59.3529" cy="33.7964" r="1.9333" transform="rotate(-15 59.3529 33.7964)" fill="url(#paint5_linear)"/>
<circle cx="37.8957" cy="54.557" r="2.89994" transform="rotate(-15 37.8957 54.557)" fill="url(#paint6_linear)"/>
<circle cx="51.1508" cy="48.003" r="1.9333" transform="rotate(-15 51.1508 48.003)" fill="url(#paint7_linear)"/>
<circle cx="47.8672" cy="61.8926" r="0.966648" transform="rotate(-15 47.8672 61.8926)" fill="url(#paint8_linear)"/>
<circle cx="41.5947" cy="23.5434" r="2.89994" transform="rotate(-15 41.5947 23.5434)" fill="url(#paint9_linear)"/>
<defs>
<linearGradient id="paint0_linear" x1="51.3265" y1="70.9853" x2="36.932" y2="17.2642" gradientUnits="userSpaceOnUse">
<stop stop-color="#01C57D"/>
<stop offset="0.276042" stop-color="#747DFF"/>
<stop offset="0.666667" stop-color="#FF6494"/>
<stop offset="1" stop-color="#FFAD01"/>
</linearGradient>
<linearGradient id="paint1_linear" x1="26.4229" y1="40.6525" x2="26.4229" y2="42.5858" gradientUnits="userSpaceOnUse">
<stop stop-color="#01C57D"/>
<stop offset="0.276042" stop-color="#747DFF"/>
<stop offset="0.666667" stop-color="#FF6494"/>
<stop offset="1" stop-color="#FFAD01"/>
</linearGradient>
<linearGradient id="paint2_linear" x1="31.891" y1="29.248" x2="31.891" y2="35.0479" gradientUnits="userSpaceOnUse">
<stop stop-color="#01C57D"/>
<stop offset="0.276042" stop-color="#747DFF"/>
<stop offset="0.666667" stop-color="#FF6494"/>
<stop offset="1" stop-color="#FFAD01"/>
</linearGradient>
<linearGradient id="paint3_linear" x1="47.1478" y1="31.1304" x2="47.1478" y2="34.997" gradientUnits="userSpaceOnUse">
<stop stop-color="#01C57D"/>
<stop offset="0.276042" stop-color="#747DFF"/>
<stop offset="0.666667" stop-color="#FF6494"/>
<stop offset="1" stop-color="#FFAD01"/>
</linearGradient>
<linearGradient id="paint4_linear" x1="38.6282" y1="41.3851" x2="38.6282" y2="43.3184" gradientUnits="userSpaceOnUse">
<stop stop-color="#01C57D"/>
<stop offset="0.276042" stop-color="#747DFF"/>
<stop offset="0.666667" stop-color="#FF6494"/>
<stop offset="1" stop-color="#FFAD01"/>
</linearGradient>
<linearGradient id="paint5_linear" x1="59.3529" y1="31.8631" x2="59.3529" y2="35.7297" gradientUnits="userSpaceOnUse">
<stop stop-color="#01C57D"/>
<stop offset="0.276042" stop-color="#747DFF"/>
<stop offset="0.666667" stop-color="#FF6494"/>
<stop offset="1" stop-color="#FFAD01"/>
</linearGradient>
<linearGradient id="paint6_linear" x1="37.8957" y1="51.6571" x2="37.8957" y2="57.457" gradientUnits="userSpaceOnUse">
<stop stop-color="#01C57D"/>
<stop offset="0.276042" stop-color="#747DFF"/>
<stop offset="0.666667" stop-color="#FF6494"/>
<stop offset="1" stop-color="#FFAD01"/>
</linearGradient>
<linearGradient id="paint7_linear" x1="51.1508" y1="46.0697" x2="51.1508" y2="49.9363" gradientUnits="userSpaceOnUse">
<stop stop-color="#01C57D"/>
<stop offset="0.276042" stop-color="#747DFF"/>
<stop offset="0.666667" stop-color="#FF6494"/>
<stop offset="1" stop-color="#FFAD01"/>
</linearGradient>
<linearGradient id="paint8_linear" x1="47.8672" y1="60.926" x2="47.8672" y2="62.8593" gradientUnits="userSpaceOnUse">
<stop stop-color="#01C57D"/>
<stop offset="0.276042" stop-color="#747DFF"/>
<stop offset="0.666667" stop-color="#FF6494"/>
<stop offset="1" stop-color="#FFAD01"/>
</linearGradient>
<linearGradient id="paint9_linear" x1="41.5947" y1="20.6434" x2="41.5947" y2="26.4433" gradientUnits="userSpaceOnUse">
<stop stop-color="#01C57D"/>
<stop offset="0.276042" stop-color="#747DFF"/>
<stop offset="0.666667" stop-color="#FF6494"/>
<stop offset="1" stop-color="#FFAD01"/>
</linearGradient>
</defs>
</svg>
