<svg width="402" height="89" viewBox="0 0 402 89" fill="none" xmlns="http://www.w3.org/2000/svg">
<path d="M135.037 68.6441C134.869 68.9971 134.731 69.3108 134.612 69.5853C134.504 69.8597 134.376 70.0852 134.228 70.2617C134.089 70.4381 133.912 70.5754 133.704 70.6734C133.497 70.7715 133.211 70.8107 132.856 70.8107H127.26C125.75 70.8107 125 70.095 125 68.6539V26.725C125 26.4113 125.059 26.1172 125.188 25.8525C125.306 25.5878 125.474 25.3624 125.671 25.1761C125.868 24.9898 126.095 24.8428 126.352 24.7447C126.609 24.6467 126.855 24.5879 127.102 24.5879H133.517C134.237 24.5879 134.8 24.7938 135.214 25.2055C135.629 25.6172 135.836 26.127 135.836 26.725V38.4008C136.359 37.842 136.932 37.3224 137.534 36.8617C138.136 36.3911 138.787 35.999 139.498 35.6657C140.208 35.3422 140.978 35.0775 141.827 34.8912C142.675 34.7049 143.613 34.6069 144.649 34.6069C147.215 34.6069 149.574 35.0775 151.725 36.0284C153.887 36.9695 155.732 38.2734 157.291 39.9301C158.841 41.5869 160.065 43.528 160.933 45.7631C161.812 47.9983 162.246 50.4197 162.246 53.0176C162.246 55.5959 161.812 58.0173 160.933 60.2623C160.055 62.5072 158.841 64.4581 157.291 66.1149C155.742 67.7716 153.887 69.0755 151.725 70.0264C149.564 70.9773 147.205 71.4577 144.649 71.4577C143.692 71.4577 142.774 71.3401 141.896 71.095C141.017 70.8499 140.198 70.5362 139.429 70.1441C138.659 69.7519 137.948 69.3108 137.297 68.8108C136.645 68.3108 136.063 67.8109 135.56 67.3109L135.037 68.6441ZM152.081 53.0176C152.081 51.8216 151.883 50.6746 151.498 49.5962C151.113 48.5081 150.561 47.5571 149.85 46.7337C149.13 45.9102 148.281 45.2632 147.284 44.7828C146.288 44.3024 145.162 44.0671 143.919 44.0671C142.675 44.0671 141.511 44.3024 140.425 44.7828C139.34 45.2632 138.402 45.9102 137.613 46.7337C136.823 47.5571 136.191 48.5081 135.738 49.5962C135.274 50.6844 135.047 51.8216 135.047 53.0176V53.4097C135.106 54.5861 135.372 55.6939 135.856 56.7233C136.34 57.7526 136.971 58.6447 137.761 59.3996C138.55 60.1544 139.478 60.7524 140.534 61.1838C141.59 61.6151 142.715 61.8308 143.929 61.8308C145.172 61.8308 146.297 61.6053 147.294 61.1446C148.291 60.6838 149.15 60.0662 149.86 59.2819C150.581 58.4977 151.123 57.5663 151.508 56.488C151.883 55.3998 152.081 54.2528 152.081 53.0176Z" fill="white"/>
<path d="M167.921 23.1567C167.921 22.3725 168.088 21.8137 168.434 21.4902C168.779 21.1667 169.302 21 170.013 21H176.566C177.227 21 177.76 21.1667 178.165 21.4902C178.569 21.8137 178.776 22.3725 178.776 23.1567V28.627C178.776 28.8525 178.727 29.0976 178.619 29.3525C178.52 29.6171 178.372 29.872 178.184 30.1073C177.997 30.3524 177.76 30.5485 177.493 30.7151C177.217 30.872 176.911 30.9504 176.576 30.9504H170.023C168.631 30.9504 167.93 30.1759 167.93 28.6172V23.1567H167.921ZM167.921 37.352C167.921 36.754 168.088 36.2344 168.434 35.8129C168.769 35.3815 169.302 35.1658 170.013 35.1658H176.487C176.714 35.1658 176.961 35.2149 177.217 35.3227C177.484 35.4207 177.73 35.5776 177.947 35.7737C178.174 35.9697 178.362 36.1952 178.53 36.4599C178.698 36.7246 178.767 37.0187 178.767 37.3618V68.6541C178.767 69.3697 178.569 69.8991 178.174 70.2716C177.78 70.6344 177.217 70.8206 176.477 70.8206H170.003C168.611 70.8206 167.911 70.105 167.911 68.6639V37.352H167.921Z" fill="white"/>
<path d="M190.925 59.7233C191.438 60.233 191.981 60.6546 192.573 60.9977C193.166 61.3408 193.738 61.6251 194.281 61.8408C194.824 62.0565 195.307 62.2133 195.722 62.3015C196.136 62.3898 196.422 62.4388 196.57 62.4388C196.926 62.4388 197.389 62.429 197.942 62.3996C198.495 62.3702 199.028 62.2917 199.541 62.1447C200.054 62.0074 200.488 61.7722 200.854 61.4585C201.219 61.1447 201.406 60.6938 201.406 60.1154C201.406 59.5958 201.298 59.1743 201.1 58.8704C200.893 58.5567 200.587 58.3018 200.192 58.0861C199.798 57.8704 199.314 57.6744 198.742 57.5077C198.169 57.3411 197.518 57.145 196.807 56.9195C194.547 56.3215 192.682 55.5961 191.211 54.753C189.741 53.9099 188.576 52.9688 187.718 51.9296C186.859 50.8904 186.267 49.7729 185.922 48.5769C185.586 47.3808 185.408 46.1162 185.408 44.7928C185.408 43.2438 185.714 41.8321 186.336 40.5577C186.958 39.2833 187.846 38.1951 188.991 37.2932C190.136 36.3815 191.517 35.6854 193.116 35.1855C194.715 34.6855 196.501 34.4404 198.455 34.4404C199.64 34.4404 200.755 34.5385 201.791 34.7345C202.827 34.9306 203.814 35.2443 204.762 35.656C205.699 36.0776 206.617 36.6168 207.515 37.2834C208.413 37.95 209.301 38.7343 210.19 39.6558C210.505 40.0283 210.673 40.3813 210.683 40.7048C210.693 41.0283 210.476 41.3812 210.051 41.7537C209.321 42.3517 208.611 42.9399 207.949 43.5183C207.278 44.0967 206.587 44.7437 205.877 45.4594C205.65 45.6456 205.423 45.7633 205.196 45.8123C204.969 45.8613 204.752 45.8515 204.545 45.8025C204.337 45.7437 204.14 45.6555 203.952 45.5182C203.765 45.3908 203.597 45.2241 203.439 45.0378C202.778 44.3124 202.028 43.8124 201.179 43.5673C200.33 43.3125 199.541 43.185 198.811 43.185C197.883 43.185 197.153 43.3419 196.61 43.6654C196.067 43.9889 195.81 44.4692 195.85 45.1261C195.889 45.6162 196.067 45.9888 196.403 46.2633C196.738 46.5378 197.133 46.7534 197.616 46.9201C198.1 47.0867 198.603 47.224 199.146 47.3318C199.679 47.4397 200.173 47.5475 200.627 47.6847C202.324 48.2239 203.873 48.8219 205.285 49.4494C206.696 50.0866 207.92 50.8708 208.956 51.7924C209.992 52.7139 210.802 53.8314 211.374 55.1157C211.946 56.4097 212.233 57.9783 212.233 59.8311C212.233 61.6839 211.857 63.3407 211.117 64.8014C210.377 66.2621 209.351 67.4875 208.048 68.4777C206.745 69.4678 205.206 70.2226 203.429 70.752C201.653 71.2716 199.728 71.5363 197.676 71.5363C196.511 71.5363 195.317 71.4383 194.113 71.2324C192.909 71.0265 191.744 70.6932 190.609 70.2325C189.475 69.7717 188.409 69.1835 187.392 68.4678C186.376 67.7522 185.468 66.8699 184.678 65.8406C184.471 65.5759 184.313 65.3014 184.214 65.0171C184.106 64.723 184.066 64.4387 184.076 64.1642C184.086 63.8799 184.145 63.625 184.244 63.3897C184.343 63.1544 184.51 62.9584 184.737 62.7819L188.379 59.1645C188.833 58.7919 189.228 58.6547 189.583 58.7723C189.929 58.8802 190.373 59.1939 190.925 59.7233Z" fill="white"/>
<path d="M241.238 59.831C241.504 59.6447 241.751 59.5271 241.988 59.4781C242.224 59.429 242.402 59.4094 242.54 59.4094C242.856 59.4094 243.152 59.4781 243.419 59.6055C243.685 59.7329 243.952 60.0172 244.238 60.4486L247.406 65.1934C247.495 65.3405 247.593 65.5169 247.672 65.7032C247.751 65.8895 247.8 66.0365 247.8 66.1541C247.8 66.5855 247.662 66.9384 247.386 67.2031C247.11 67.4776 246.814 67.7129 246.498 67.9187C244.948 68.9873 243.261 69.8402 241.425 70.4872C239.589 71.1342 237.645 71.4577 235.592 71.4577C233.895 71.4577 232.267 71.2421 230.688 70.8107C229.118 70.3794 227.648 69.7716 226.296 68.9677C224.944 68.1736 223.7 67.2227 222.565 66.1051C221.43 64.9875 220.473 63.7523 219.684 62.3897C218.894 61.027 218.272 59.5467 217.828 57.9683C217.384 56.39 217.167 54.7332 217.167 53.0177C217.167 51.3021 217.384 49.6453 217.828 48.0473C218.272 46.4592 218.884 44.9887 219.684 43.626C220.473 42.2732 221.43 41.038 222.565 39.9204C223.7 38.8126 224.934 37.8617 226.296 37.0676C227.648 36.2833 229.118 35.6755 230.688 35.2442C232.257 34.8128 233.895 34.5972 235.592 34.5972C237.645 34.5972 239.54 34.8716 241.287 35.4108C243.034 35.95 244.662 36.7539 246.192 37.8225L246.103 37.7342C246.517 37.9793 246.843 38.2636 247.09 38.5871C247.337 38.9106 247.455 39.3224 247.455 39.8125C247.455 40.1459 247.337 40.4988 247.119 40.8517L244.603 45.0867C244.08 46.0083 243.438 46.4592 242.678 46.4592C242.511 46.4592 242.303 46.42 242.057 46.3318C241.81 46.2435 241.543 46.1063 241.238 45.9004C240.409 45.3612 239.52 44.9103 238.563 44.5672C237.616 44.2241 236.599 44.0476 235.523 44.0476C234.339 44.0476 233.244 44.2829 232.247 44.7632C231.25 45.2436 230.391 45.8906 229.691 46.7141C228.98 47.5376 228.437 48.4885 228.043 49.5767C227.648 50.6649 227.451 51.802 227.451 52.998C227.451 54.2333 227.648 55.3901 228.043 56.4684C228.437 57.5468 228.99 58.4781 229.691 59.2624C230.401 60.0466 231.25 60.6741 232.247 61.125C233.244 61.5858 234.339 61.8113 235.523 61.8113C236.599 61.8113 237.606 61.625 238.543 61.2525C239.491 60.8897 240.389 60.4094 241.238 59.831Z" fill="white"/>
<path d="M252.054 53.0177C252.054 51.2923 252.271 49.6453 252.715 48.0473C253.159 46.4592 253.781 44.9887 254.58 43.626C255.38 42.2732 256.337 41.038 257.462 39.9204C258.587 38.8126 259.831 37.8617 261.203 37.0676C262.574 36.2833 264.065 35.6755 265.653 35.2442C267.242 34.8128 268.91 34.5972 270.637 34.5972C273.193 34.5972 275.601 35.0677 277.852 36.0187C280.102 36.9598 282.056 38.2636 283.724 39.9204C285.392 41.5771 286.704 43.5182 287.681 45.7534C288.648 47.9885 289.132 50.41 289.132 53.0079C289.132 54.7332 288.915 56.3802 288.471 57.9585C288.027 59.5369 287.405 61.0172 286.605 62.3799C285.806 63.7425 284.839 64.9875 283.724 66.0953C282.599 67.2129 281.355 68.1638 279.983 68.9579C278.612 69.752 277.131 70.3696 275.562 70.8009C273.993 71.2323 272.345 71.448 270.627 71.448C268.891 71.448 267.233 71.2323 265.644 70.8009C264.055 70.3696 262.564 69.7618 261.193 68.9579C259.821 68.1638 258.568 67.2129 257.452 66.0953C256.337 64.9777 255.37 63.7425 254.571 62.3799C253.771 61.0172 253.149 59.5369 252.705 57.9585C252.281 56.39 252.054 54.7332 252.054 53.0177ZM262.367 53.0177C262.367 54.2529 262.564 55.4097 262.949 56.488C263.334 57.5664 263.877 58.4977 264.588 59.282C265.298 60.0663 266.147 60.6937 267.163 61.1446C268.17 61.6054 269.305 61.8309 270.568 61.8309C271.792 61.8309 272.897 61.6054 273.884 61.1446C274.871 60.6839 275.71 60.0663 276.401 59.282C277.092 58.4977 277.615 57.5664 277.98 56.488C278.345 55.4097 278.533 54.2529 278.533 53.0177C278.533 51.8216 278.345 50.6746 277.98 49.5963C277.615 48.5081 277.082 47.5572 276.401 46.7337C275.71 45.9102 274.871 45.2632 273.884 44.7828C272.897 44.3025 271.792 44.0672 270.568 44.0672C269.305 44.0672 268.17 44.3025 267.163 44.7828C266.157 45.2632 265.298 45.9102 264.588 46.7337C263.877 47.5572 263.334 48.5081 262.949 49.5963C262.564 50.6746 262.367 51.8216 262.367 53.0177Z" fill="white"/>
<path d="M294.748 23.1567C294.748 22.3725 294.915 21.8137 295.261 21.4902C295.606 21.1667 296.129 21 296.84 21H303.393C304.054 21 304.587 21.1667 304.992 21.4902C305.396 21.8137 305.603 22.3725 305.603 23.1567V28.627C305.603 28.8525 305.554 29.0976 305.446 29.3525C305.337 29.6171 305.199 29.872 305.011 30.1073C304.824 30.3426 304.597 30.5485 304.32 30.7151C304.044 30.8818 303.738 30.9504 303.403 30.9504H296.85C295.458 30.9504 294.757 30.1759 294.757 28.6172V23.1567H294.748ZM294.748 37.352C294.748 36.754 294.915 36.2344 295.261 35.8129C295.596 35.3815 296.129 35.1658 296.84 35.1658H303.304C303.531 35.1658 303.778 35.2149 304.044 35.3227C304.311 35.4207 304.547 35.5776 304.774 35.7737C305.001 35.9697 305.189 36.1952 305.357 36.4599C305.515 36.7246 305.594 37.0187 305.594 37.3618V68.6541C305.594 69.3697 305.396 69.8991 305.001 70.2716C304.607 70.6344 304.044 70.8206 303.304 70.8206H296.84C295.448 70.8206 294.748 70.105 294.748 68.6639V37.352Z" fill="white"/>
<path d="M314.555 29.6072C314.555 29.0288 314.752 28.5876 315.137 28.3033C315.522 28.0092 316.074 27.7347 316.785 27.4798L323.2 25.2643C323.289 25.2447 323.387 25.2349 323.466 25.2349C323.545 25.2349 323.634 25.2349 323.703 25.2349C324.404 25.2349 324.868 25.4407 325.105 25.8427C325.341 26.2446 325.46 26.774 325.46 27.4308L325.43 35.1461H329.299C329.901 35.1461 330.394 35.3225 330.769 35.6754C331.144 36.0283 331.332 36.5675 331.332 37.2734V42.6848C331.332 43.4691 331.144 44.0475 330.769 44.4102C330.394 44.7729 329.901 44.9592 329.299 44.9592H325.43L325.46 68.6441C325.46 69.3598 325.253 69.8891 324.838 70.2617C324.424 70.6342 323.851 70.8106 323.111 70.8106H316.726C315.275 70.8106 314.555 70.095 314.555 68.6539L314.525 44.969H311.614C310.163 44.969 309.442 44.2142 309.442 42.6946V37.2832C309.442 35.8617 310.163 35.1461 311.614 35.1461H314.525L314.555 29.6072Z" fill="white"/>
<path d="M334.47 69.7424C334.411 69.4777 334.46 69.2228 334.608 68.9679C334.756 68.713 334.895 68.5072 335.003 68.3405L346.244 52.5963L335.595 37.558C335.408 37.3129 335.25 37.0482 335.112 36.7737C334.983 36.4894 334.924 36.2345 334.954 35.9993C334.983 35.764 335.102 35.5679 335.319 35.4111C335.536 35.2542 335.901 35.1758 336.405 35.1758H345.277C345.593 35.1758 345.879 35.313 346.106 35.5875C346.343 35.862 346.609 36.2051 346.915 36.6365L352.313 45.3124C352.669 44.8027 353.083 44.1654 353.557 43.391C354.031 42.6165 354.514 41.8126 355.008 40.9794C355.511 40.1461 355.985 39.3422 356.449 38.5481C356.912 37.7541 357.307 37.0972 357.653 36.5581C357.968 36.0679 358.274 35.7248 358.541 35.5091C358.817 35.2934 359.143 35.1856 359.518 35.1856H368.469C368.696 35.1856 368.903 35.2346 369.101 35.3228C369.298 35.4111 369.456 35.5483 369.565 35.715C369.673 35.8816 369.722 36.0777 369.703 36.3032C369.683 36.5286 369.565 36.7737 369.338 37.0286L358.294 52.5179L369.288 67.7817C369.515 68.1052 369.703 68.4385 369.87 68.7915C370.028 69.1444 370.097 69.4777 370.078 69.7718C370.058 70.0757 369.92 70.3208 369.663 70.5169C369.407 70.7129 368.982 70.811 368.38 70.811H359.222C358.373 70.811 357.741 70.3208 357.327 69.3503L352.294 60.3704L347.211 69.4679C347.004 69.8796 346.737 70.2032 346.422 70.4482C346.096 70.6933 345.79 70.811 345.484 70.811H335.655C335.388 70.811 335.161 70.7521 334.974 70.6443C334.786 70.5365 334.628 70.3306 334.49 70.0267L334.47 69.7424Z" fill="white"/>
<path d="M380.49 59.7233C381.003 60.233 381.546 60.6546 382.138 60.9977C382.73 61.3408 383.302 61.6251 383.845 61.8408C384.388 62.0565 384.871 62.2133 385.286 62.3015C385.7 62.3996 385.987 62.4388 386.135 62.4388C386.49 62.4388 386.954 62.429 387.506 62.3996C388.059 62.3702 388.592 62.2917 389.105 62.1447C389.618 62.0074 390.053 61.7722 390.418 61.4585C390.783 61.1447 390.97 60.6938 390.97 60.1154C390.97 59.5958 390.862 59.1743 390.655 58.8704C390.447 58.5567 390.151 58.3018 389.747 58.0861C389.352 57.8704 388.868 57.6744 388.296 57.5077C387.724 57.3411 387.072 57.145 386.362 56.9195C384.102 56.3215 382.236 55.5961 380.766 54.753C379.295 53.9099 378.131 52.9688 377.272 51.9296C376.414 50.8904 375.822 49.7729 375.476 48.5769C375.141 47.3808 374.963 46.1162 374.963 44.7928C374.963 43.2438 375.279 41.8321 375.891 40.5577C376.512 39.2833 377.401 38.1951 378.545 37.2932C379.69 36.3913 381.072 35.6854 382.671 35.1855C384.269 34.6855 386.046 34.4404 388.01 34.4404C389.194 34.4404 390.309 34.5385 391.346 34.7345C392.382 34.9306 393.369 35.2443 394.316 35.656C395.254 36.0776 396.171 36.6168 397.07 37.2834C397.968 37.95 398.856 38.7343 399.744 39.6558C400.06 40.0283 400.228 40.3813 400.237 40.7048C400.247 41.0283 400.03 41.3812 399.606 41.7537C398.876 42.3517 398.165 42.9399 397.504 43.5183C396.833 44.0967 396.142 44.7437 395.431 45.4594C395.204 45.6456 394.977 45.7633 394.75 45.8123C394.523 45.8613 394.306 45.8515 394.099 45.8025C393.892 45.7437 393.694 45.6555 393.507 45.5182C393.319 45.3908 393.152 45.2241 392.994 45.0378C392.332 44.3124 391.582 43.8124 390.734 43.5673C389.885 43.3125 389.095 43.185 388.365 43.185C387.437 43.185 386.707 43.3419 386.164 43.6654C385.621 43.9889 385.365 44.4692 385.404 45.1261C385.444 45.6162 385.621 45.9888 385.957 46.2633C386.283 46.5378 386.687 46.7534 387.171 46.9201C387.655 47.0867 388.158 47.224 388.701 47.3318C389.234 47.4397 389.727 47.5475 390.181 47.6847C391.878 48.2239 393.428 48.8219 394.839 49.4494C396.25 50.0866 397.474 50.8708 398.51 51.7924C399.547 52.7139 400.356 53.8314 400.928 55.1157C401.501 56.4097 401.787 57.9783 401.787 59.8311C401.787 61.6839 401.412 63.3407 400.672 64.8014C399.932 66.2621 398.905 67.4875 397.602 68.4777C396.3 69.4678 394.76 70.2226 392.984 70.752C391.207 71.2814 389.283 71.5363 387.23 71.5363C386.066 71.5363 384.871 71.4383 383.667 71.2324C382.463 71.0265 381.289 70.6932 380.164 70.2325C379.029 69.7717 377.963 69.1835 376.947 68.4678C375.93 67.7522 375.022 66.8699 374.233 65.8406C374.025 65.5759 373.867 65.3014 373.769 65.0171C373.67 64.7328 373.621 64.4387 373.631 64.1642C373.641 63.8799 373.7 63.625 373.798 63.3897C373.897 63.1544 374.065 62.9584 374.292 62.7819L377.934 59.1645C378.387 58.7919 378.782 58.6547 379.138 58.7723C379.493 58.8802 379.947 59.1939 380.49 59.7233Z" fill="white"/>
<rect width="89" height="89" rx="32" fill="url(#paint0_linear)"/>
<path d="M66.8559 52.9353C67.7406 50.9902 63.017 51.0021 62.0503 52.9353L61.6739 56.6449C57.4996 52.7783 55.7078 55.1736 55.6013 56.6449L55.7078 60.635C50.8745 58.7017 52.6417 64.4251 52.6417 64.6493C53.3505 66.4684 53.5479 66.9667 52.6417 67.3402C48.0979 69.2143 43.9113 69.1753 39.0167 68.162C29.3574 66.1645 21.7054 58.337 19.9775 48.6843C18.5095 40.4898 21.0071 32.4773 26.8274 26.6993C32.6508 20.9212 40.6926 18.4853 48.8806 20.0151C58.1761 21.7495 65.8671 29.106 68.014 38.317C69.3683 44.134 68.9396 48.3539 66.8559 52.9353ZM71.1742 37.5797C68.7415 27.1345 60.0209 18.7906 49.4782 16.8224C40.2217 15.0912 31.1308 17.852 24.5408 24.3932C17.9508 30.9345 15.1219 39.9994 16.7816 49.2592C18.7401 60.2013 27.412 69.0811 38.3607 71.3449C43.8853 72.4816 49.5269 71.9652 54.6748 69.8411C57.6411 68.3682 53.7265 63.3904 54.6748 63.6827L56.6744 63.2215C58.3663 63.0737 55.2265 52.9353 62.4743 60.3215C63.4714 60.3215 64.4076 60.3215 64.7067 58.9022C64.4076 56.6449 63.441 55.4883 64.7067 55.1736L66.8559 56.3995C67.3076 56.4549 68.67 57.1743 68.9396 56.6449C71.9342 50.7434 72.7072 44.1502 71.1742 37.5797Z" fill="white"/>
<circle cx="27.6747" cy="37.1219" r="0.966648" fill="white"/>
<circle cx="35.4078" cy="29.3887" r="2.89994" fill="white"/>
<circle cx="49.9077" cy="34.2219" r="1.9333" fill="white"/>
<circle cx="39.2745" cy="40.9886" r="0.966648" fill="white"/>
<circle cx="61.5073" cy="38.0886" r="1.9333" fill="white"/>
<circle cx="35.4078" cy="52.5884" r="2.89994" fill="white"/>
<circle cx="49.9077" cy="49.6887" r="1.9333" fill="white"/>
<circle cx="43.141" cy="62.2547" r="0.966648" fill="white"/>
<circle cx="47.0076" cy="23.5889" r="2.89994" fill="white"/>
<defs>
<linearGradient id="paint0_linear" x1="98.5" y1="77.5" x2="-7.5" y2="-4.04675e-07" gradientUnits="userSpaceOnUse">
<stop stop-color="#FFAD01"/>
<stop offset="0.317708" stop-color="#FF6494"/>
<stop offset="0.611544" stop-color="#747DFF"/>
<stop offset="1" stop-color="#01C57D"/>
</linearGradient>
</defs>
</svg>
