<svg width="357" height="235" viewBox="0 0 357 235" fill="none" xmlns="http://www.w3.org/2000/svg">
<path d="M162.597 105.42L162.103 114.194C130.591 116.812 88.4704 127.419 58.5771 145.879L58.7054 128.507C90.8587 112.988 132.328 104.43 163.1 102.989C162.824 103.734 162.656 104.538 162.597 105.42Z" fill="#60E288"/>
<path d="M207.846 86.1175C207.629 87.6665 206.633 88.8527 205.073 89.7742C191.563 75.6574 119.933 77.4122 58.972 93.7838L59.1003 76.4122C131.125 63.2855 207.55 65.6089 207.886 85.3823L207.846 86.1077V86.1175Z" fill="#E25E54"/>
<path d="M58.9819 93.7739C119.943 77.4023 191.572 75.6475 205.083 89.7644C201.639 91.8034 195.461 92.5975 188.849 93.3818C160.544 88.4213 104.054 94.5092 58.8437 111.136L58.9819 93.7739Z" fill="#FF9F57"/>
<path d="M188.849 93.3818C177.874 94.6954 165.745 95.9895 163.11 102.989C132.338 104.42 90.8687 112.979 58.7154 128.507L58.8535 111.145C104.054 94.519 160.544 88.4311 188.849 93.3818Z" fill="#FFE15F"/>
<path d="M160.89 135.82L160.86 136.261C127.72 141.144 83.6644 155.927 58.301 180.622L58.4293 163.25C86.1021 141.702 129.161 129.027 161.472 125.282L161.452 125.674L160.929 134.928C160.899 135.212 160.88 135.497 160.88 135.801L160.89 135.82Z" fill="#9756E2"/>
<path d="M161.482 125.233V125.282C129.17 129.027 86.1118 141.702 58.439 163.25L58.5673 145.879C88.4606 127.409 130.582 116.812 162.093 114.194L162.015 115.547L161.482 125.233Z" fill="#26C7D3"/>
<path d="M206.109 115.076C205.813 116.674 204.895 117.939 203.504 118.949C202.26 119.851 200.642 120.566 198.777 121.145C200.918 121.341 203.129 121.507 205.389 121.645C205.497 121.654 205.606 121.654 205.705 121.664L206.109 115.076Z" fill="#60E288"/>
<path d="M206.109 115.076L206.198 113.537V113.508L206.682 105.42C206.405 107.008 205.448 108.243 204.007 109.243C200 111.979 192.174 112.782 184.309 113.782C180.243 114.302 176.177 114.88 172.614 115.802C179.009 118.37 188.089 120.155 198.777 121.145C200.652 120.566 202.27 119.851 203.504 118.949C204.895 117.939 205.813 116.674 206.109 115.076Z" fill="#FFE15F"/>
<path d="M204.007 109.234C205.458 108.244 206.415 107.008 206.682 105.41L206.692 105.391L206.771 104.126V104.116L207.274 95.7443C207.027 97.3324 206.05 98.548 204.53 99.499C200.82 101.852 193.921 102.665 186.736 103.548C177.775 104.646 168.38 105.852 164.215 110.283C165.202 111.547 166.614 112.704 168.4 113.763C169.633 114.488 171.045 115.175 172.614 115.802C176.177 114.88 180.243 114.302 184.309 113.782C192.174 112.782 200 111.979 204.007 109.234Z" fill="#FF9F57"/>
<path d="M186.737 103.558C193.921 102.675 200.82 101.862 204.53 99.5088C206.04 98.548 207.027 97.3324 207.274 95.7443L207.343 94.7443V94.7345L207.856 86.1174C207.639 87.6663 206.642 88.8427 205.083 89.774C201.639 91.8131 195.461 92.6072 188.849 93.3915C177.874 94.7051 165.745 95.9992 163.11 102.999C162.824 103.744 162.656 104.548 162.607 105.43C162.498 107.195 163.061 108.822 164.225 110.302C168.38 105.861 177.776 104.656 186.737 103.558Z" fill="#E25E54"/>
<path d="M329.433 125.047C286.177 166.564 176.552 176.367 161.472 160.054C160.366 158.858 159.764 157.525 159.745 156.055L159.271 164.417L159.172 166.181C159.902 186.857 278.38 178.141 327.834 131.576L329.433 125.047Z" fill="#9756E2"/>
<path d="M161.472 160.054C176.552 176.367 286.177 166.554 329.423 125.037L331.022 118.498C295.71 153.133 204.836 164.446 172.209 155.339C167.472 154.015 163.969 152.27 162.034 150.094C160.909 148.849 160.317 147.457 160.317 145.918L159.824 154.574L159.745 156.025V156.035C159.774 157.535 160.376 158.858 161.472 160.054Z" fill="#26C7D3"/>
<path d="M162.034 150.113C163.969 152.28 167.482 154.035 172.209 155.349C204.836 164.456 295.72 153.143 331.022 118.507L332.621 111.959C306.616 138.085 242.684 150.153 200.593 149.163C189.105 148.898 179.236 147.653 172.219 145.467C167.758 144.084 164.442 142.31 162.587 140.153C161.561 138.967 160.978 137.663 160.889 136.242C160.88 136.242 160.86 136.242 160.85 136.252L160.366 144.82L160.297 145.908V145.918C160.327 147.467 160.919 148.859 162.034 150.113Z" fill="#60E288"/>
<path d="M162.597 140.163C164.452 142.31 167.768 144.094 172.229 145.477C179.246 147.663 189.115 148.898 200.602 149.173C242.694 150.153 306.625 138.095 332.63 111.969L334.229 105.43C310.652 129.772 247.648 141.124 204.609 140.075C204.412 140.075 204.234 140.065 204.037 140.065C202.704 140.026 201.402 139.987 200.119 139.918C188.809 139.399 179.137 137.948 172.298 135.605C171.795 135.438 171.301 135.262 170.827 135.075C167.344 133.732 164.709 132.105 163.14 130.223C161.995 128.85 161.412 127.35 161.462 125.694L160.939 134.948L160.889 135.82V135.84C160.889 135.987 160.889 136.124 160.899 136.271C160.978 137.673 161.56 138.977 162.597 140.163Z" fill="#FFE15F"/>
<path d="M163.14 130.213C164.709 132.095 167.334 133.713 170.828 135.066C171.301 135.252 171.785 135.428 172.298 135.595C179.137 137.948 188.819 139.389 200.119 139.908C201.402 139.967 202.715 140.016 204.037 140.055C204.224 140.065 204.412 140.065 204.609 140.065C247.648 141.124 310.652 129.762 334.229 105.42L335.828 98.8814C314.018 122.115 249.178 132.703 205.172 130.88C205.024 130.87 204.886 130.87 204.748 130.86C202.981 130.791 201.234 130.693 199.537 130.566C188.493 129.801 179.078 128.184 172.436 125.703C171.41 125.321 170.463 124.929 169.574 124.498C166.969 123.262 164.965 121.841 163.682 120.253C162.518 118.821 161.946 117.253 162.024 115.537L161.482 125.223V125.272L161.462 125.664C161.413 127.331 161.995 128.84 163.14 130.213Z" fill="#FF9F57"/>
<path d="M163.683 120.262C164.966 121.851 166.969 123.272 169.574 124.507C170.463 124.939 171.41 125.331 172.436 125.713C179.068 128.193 188.484 129.811 199.527 130.576C201.224 130.693 202.961 130.791 204.738 130.87C204.876 130.879 205.024 130.879 205.162 130.889C249.178 132.722 314.018 122.125 335.828 98.8911L337.427 92.3523C317.403 114.459 250.708 124.301 205.715 121.674C205.616 121.674 205.498 121.664 205.399 121.654C203.129 121.517 200.928 121.351 198.787 121.155C188.099 120.164 179.019 118.39 172.624 115.812C171.055 115.184 169.644 114.508 168.41 113.773C166.624 112.714 165.212 111.557 164.225 110.292C163.061 108.812 162.498 107.185 162.597 105.42L162.104 114.194C162.133 114.194 162.163 114.184 162.192 114.184C162.104 114.616 162.044 115.076 162.025 115.547C161.946 117.263 162.518 118.841 163.683 120.262Z" fill="#E25E54"/>
<path d="M68.0121 187.543C67.8443 187.896 67.7062 188.21 67.5877 188.484C67.4792 188.758 67.3509 188.984 67.2028 189.16C67.0647 189.337 66.887 189.474 66.6798 189.572C66.4725 189.67 66.1863 189.709 65.831 189.709H60.2353C58.7253 189.709 57.9753 188.994 57.9753 187.553V145.624C57.9753 145.31 58.0345 145.016 58.1628 144.751C58.2812 144.487 58.449 144.261 58.6464 144.075C58.8438 143.889 59.0708 143.742 59.3273 143.643C59.5839 143.545 59.8307 143.487 60.0774 143.487H66.4923C67.2127 143.487 67.7752 143.693 68.1897 144.104C68.6042 144.516 68.8115 145.026 68.8115 145.624V157.3C69.3345 156.741 69.907 156.221 70.509 155.76C71.111 155.29 71.7623 154.898 72.4729 154.564C73.1835 154.241 73.9533 153.976 74.802 153.79C75.6507 153.604 76.5883 153.506 77.6245 153.506C80.1905 153.506 82.5492 153.976 84.7006 154.927C86.862 155.868 88.7075 157.172 90.2668 158.829C91.8162 160.486 93.04 162.427 93.9084 164.662C94.7868 166.897 95.221 169.318 95.221 171.916C95.221 174.495 94.7868 176.916 93.9084 179.161C93.0301 181.406 91.8162 183.357 90.2668 185.014C88.7173 186.67 86.862 187.974 84.7006 188.925C82.5393 189.876 80.1806 190.356 77.6245 190.356C76.6672 190.356 75.7494 190.239 74.8711 189.994C73.9927 189.749 73.1736 189.435 72.4038 189.043C71.634 188.651 70.9235 188.21 70.2721 187.71C69.6207 187.21 69.0385 186.71 68.5352 186.21L68.0121 187.543ZM85.0559 171.916C85.0559 170.72 84.8585 169.573 84.4736 168.495C84.0887 167.407 83.5361 166.456 82.8255 165.632C82.1051 164.809 81.2563 164.162 80.2596 163.682C79.2628 163.201 78.1377 162.966 76.8942 162.966C75.6507 162.966 74.4862 163.201 73.4006 163.682C72.315 164.162 71.3774 164.809 70.5879 165.632C69.7984 166.456 69.1668 167.407 68.7128 168.495C68.249 169.583 68.022 170.72 68.022 171.916V172.308C68.0812 173.485 68.3476 174.593 68.8312 175.622C69.3148 176.651 69.9464 177.543 70.7359 178.298C71.5255 179.053 72.4532 179.651 73.5092 180.083C74.5651 180.514 75.6902 180.73 76.9041 180.73C78.1476 180.73 79.2727 180.504 80.2694 180.043C81.2662 179.583 82.1248 178.965 82.8354 178.181C83.5558 177.396 84.0986 176.465 84.4835 175.387C84.8585 174.299 85.0559 173.152 85.0559 171.916Z" fill="white"/>
<path d="M100.896 142.055C100.896 141.271 101.064 140.712 101.409 140.389C101.754 140.065 102.278 139.899 102.988 139.899H109.541C110.202 139.899 110.735 140.065 111.14 140.389C111.545 140.712 111.752 141.271 111.752 142.055V147.526C111.752 147.751 111.702 147.996 111.594 148.251C111.495 148.516 111.347 148.771 111.16 149.006C110.972 149.251 110.735 149.447 110.469 149.614C110.193 149.771 109.887 149.849 109.551 149.849H102.998C101.606 149.849 100.906 149.075 100.906 147.516V142.055H100.896ZM100.896 156.251C100.896 155.653 101.064 155.133 101.409 154.711C101.745 154.28 102.278 154.064 102.988 154.064H109.462C109.689 154.064 109.936 154.113 110.193 154.221C110.459 154.319 110.706 154.476 110.923 154.672C111.15 154.868 111.337 155.094 111.505 155.359C111.673 155.623 111.742 155.917 111.742 156.26V187.553C111.742 188.268 111.545 188.798 111.15 189.17C110.755 189.533 110.193 189.719 109.452 189.719H102.978C101.587 189.719 100.886 189.004 100.886 187.563V156.251H100.896Z" fill="white"/>
<path d="M123.901 178.622C124.414 179.132 124.957 179.553 125.549 179.896C126.141 180.24 126.713 180.524 127.256 180.739C127.799 180.955 128.282 181.112 128.697 181.2C129.111 181.288 129.398 181.337 129.546 181.337C129.901 181.337 130.365 181.328 130.917 181.298C131.47 181.269 132.003 181.19 132.516 181.043C133.029 180.906 133.464 180.671 133.829 180.357C134.194 180.043 134.382 179.592 134.382 179.014C134.382 178.495 134.273 178.073 134.076 177.769C133.868 177.455 133.562 177.2 133.168 176.985C132.773 176.769 132.289 176.573 131.717 176.406C131.144 176.24 130.493 176.044 129.783 175.818C127.523 175.22 125.657 174.495 124.187 173.652C122.716 172.809 121.552 171.867 120.693 170.828C119.835 169.789 119.242 168.672 118.897 167.476C118.561 166.28 118.384 165.015 118.384 163.691C118.384 162.143 118.69 160.731 119.311 159.456C119.933 158.182 120.821 157.094 121.966 156.192C123.111 155.28 124.493 154.584 126.092 154.084C127.69 153.584 129.477 153.339 131.431 153.339C132.615 153.339 133.73 153.437 134.766 153.633C135.803 153.829 136.79 154.143 137.737 154.555C138.675 154.976 139.592 155.515 140.49 156.182C141.389 156.849 142.277 157.633 143.165 158.554C143.481 158.927 143.649 159.28 143.658 159.603C143.668 159.927 143.451 160.28 143.027 160.652C142.296 161.25 141.586 161.839 140.925 162.417C140.254 162.995 139.563 163.642 138.852 164.358C138.625 164.544 138.398 164.662 138.171 164.711C137.944 164.76 137.727 164.75 137.52 164.701C137.313 164.642 137.115 164.554 136.928 164.417C136.74 164.289 136.572 164.123 136.415 163.937C135.753 163.211 135.003 162.711 134.155 162.466C133.306 162.211 132.516 162.084 131.786 162.084C130.858 162.084 130.128 162.241 129.585 162.564C129.042 162.888 128.786 163.368 128.825 164.025C128.865 164.515 129.042 164.887 129.378 165.162C129.713 165.436 130.108 165.652 130.592 165.819C131.075 165.985 131.579 166.123 132.121 166.231C132.654 166.338 133.148 166.446 133.602 166.583C135.299 167.123 136.849 167.721 138.26 168.348C139.671 168.985 140.895 169.77 141.931 170.691C142.968 171.613 143.777 172.73 144.349 174.014C144.922 175.308 145.208 176.877 145.208 178.73C145.208 180.583 144.833 182.239 144.093 183.7C143.352 185.161 142.326 186.386 141.023 187.376C139.721 188.366 138.181 189.121 136.405 189.651C134.628 190.17 132.704 190.435 130.651 190.435C129.486 190.435 128.292 190.337 127.088 190.131C125.884 189.925 124.72 189.592 123.585 189.131C122.45 188.67 121.384 188.082 120.367 187.367C119.351 186.651 118.443 185.769 117.653 184.739C117.446 184.475 117.288 184.2 117.19 183.916C117.081 183.622 117.042 183.337 117.051 183.063C117.061 182.779 117.121 182.524 117.219 182.288C117.318 182.053 117.486 181.857 117.713 181.681L121.354 178.063C121.808 177.691 122.203 177.553 122.558 177.671C122.904 177.779 123.348 178.093 123.901 178.622Z" fill="white"/>
<path d="M174.213 178.73C174.479 178.543 174.726 178.426 174.963 178.377C175.2 178.328 175.377 178.308 175.515 178.308C175.831 178.308 176.127 178.377 176.394 178.504C176.66 178.632 176.927 178.916 177.213 179.347L180.381 184.092C180.47 184.239 180.568 184.416 180.647 184.602C180.726 184.788 180.776 184.935 180.776 185.053C180.776 185.484 180.637 185.837 180.361 186.102C180.085 186.376 179.789 186.612 179.473 186.818C177.924 187.886 176.236 188.739 174.4 189.386C172.565 190.033 170.62 190.357 168.568 190.357C166.87 190.357 165.242 190.141 163.663 189.709C162.094 189.278 160.623 188.67 159.271 187.866C157.919 187.072 156.675 186.121 155.541 185.004C154.406 183.886 153.448 182.651 152.659 181.288C151.869 179.926 151.248 178.445 150.803 176.867C150.359 175.289 150.142 173.632 150.142 171.916C150.142 170.201 150.359 168.544 150.803 166.946C151.248 165.358 151.859 163.887 152.659 162.525C153.448 161.172 154.406 159.937 155.541 158.819C156.675 157.711 157.909 156.76 159.271 155.966C160.623 155.182 162.094 154.574 163.663 154.143C165.232 153.712 166.87 153.496 168.568 153.496C170.62 153.496 172.515 153.77 174.262 154.31C176.009 154.849 177.637 155.653 179.167 156.721L179.078 156.633C179.493 156.878 179.818 157.162 180.065 157.486C180.312 157.809 180.43 158.221 180.43 158.711C180.43 159.045 180.312 159.398 180.095 159.75L177.578 163.986C177.055 164.907 176.414 165.358 175.654 165.358C175.486 165.358 175.279 165.319 175.032 165.231C174.785 165.142 174.519 165.005 174.213 164.799C173.384 164.26 172.496 163.809 171.538 163.466C170.591 163.123 169.574 162.946 168.499 162.946C167.314 162.946 166.219 163.182 165.222 163.662C164.225 164.142 163.367 164.789 162.666 165.613C161.955 166.436 161.413 167.387 161.018 168.475C160.623 169.564 160.426 170.701 160.426 171.897C160.426 173.132 160.623 174.289 161.018 175.367C161.413 176.446 161.965 177.377 162.666 178.161C163.377 178.945 164.225 179.573 165.222 180.024C166.219 180.485 167.314 180.71 168.499 180.71C169.574 180.71 170.581 180.524 171.518 180.151C172.466 179.789 173.364 179.308 174.213 178.73Z" fill="white"/>
<path d="M185.029 171.916C185.029 170.191 185.246 168.544 185.691 166.946C186.135 165.358 186.756 163.887 187.556 162.525C188.355 161.172 189.312 159.937 190.438 158.819C191.563 157.711 192.806 156.76 194.178 155.966C195.55 155.182 197.04 154.574 198.629 154.143C200.218 153.712 201.886 153.496 203.613 153.496C206.169 153.496 208.577 153.966 210.827 154.917C213.077 155.859 215.031 157.162 216.699 158.819C218.367 160.476 219.679 162.417 220.657 164.652C221.624 166.887 222.107 169.309 222.107 171.907C222.107 173.632 221.89 175.279 221.446 176.857C221.002 178.436 220.38 179.916 219.581 181.279C218.781 182.641 217.814 183.886 216.699 184.994C215.574 186.112 214.33 187.063 212.959 187.857C211.587 188.651 210.107 189.268 208.537 189.7C206.968 190.131 205.32 190.347 203.603 190.347C201.866 190.347 200.208 190.131 198.619 189.7C197.03 189.268 195.54 188.661 194.168 187.857C192.796 187.063 191.543 186.112 190.428 184.994C189.312 183.877 188.345 182.641 187.546 181.279C186.747 179.916 186.125 178.436 185.681 176.857C185.256 175.289 185.029 173.632 185.029 171.916ZM195.342 171.916C195.342 173.152 195.54 174.308 195.925 175.387C196.31 176.465 196.852 177.396 197.563 178.181C198.274 178.965 199.122 179.592 200.139 180.043C201.145 180.504 202.28 180.73 203.544 180.73C204.767 180.73 205.873 180.504 206.86 180.043C207.847 179.583 208.685 178.965 209.376 178.181C210.067 177.396 210.59 176.465 210.955 175.387C211.32 174.308 211.508 173.152 211.508 171.916C211.508 170.72 211.32 169.573 210.955 168.495C210.59 167.407 210.057 166.456 209.376 165.632C208.685 164.809 207.847 164.162 206.86 163.682C205.873 163.201 204.767 162.966 203.544 162.966C202.28 162.966 201.145 163.201 200.139 163.682C199.132 164.162 198.274 164.809 197.563 165.632C196.852 166.456 196.31 167.407 195.925 168.495C195.54 169.573 195.342 170.72 195.342 171.916Z" fill="white"/>
<path d="M227.723 142.055C227.723 141.271 227.891 140.712 228.236 140.389C228.581 140.065 229.104 139.899 229.815 139.899H236.368C237.029 139.899 237.562 140.065 237.967 140.389C238.371 140.712 238.579 141.271 238.579 142.055V147.526C238.579 147.751 238.529 147.996 238.421 148.251C238.312 148.516 238.174 148.771 237.987 149.006C237.799 149.241 237.572 149.447 237.296 149.614C237.019 149.78 236.713 149.849 236.378 149.849H229.825C228.433 149.849 227.733 149.075 227.733 147.516V142.055H227.723ZM227.723 156.251C227.723 155.653 227.891 155.133 228.236 154.711C228.572 154.28 229.104 154.064 229.815 154.064H236.279C236.506 154.064 236.753 154.113 237.019 154.221C237.286 154.319 237.523 154.476 237.75 154.672C237.977 154.868 238.164 155.094 238.332 155.359C238.49 155.623 238.569 155.917 238.569 156.26V187.553C238.569 188.268 238.371 188.798 237.977 189.17C237.582 189.533 237.019 189.719 236.279 189.719H229.815C228.423 189.719 227.723 189.004 227.723 187.563V156.251Z" fill="white"/>
<path d="M247.53 148.506C247.53 147.928 247.727 147.486 248.112 147.202C248.497 146.908 249.05 146.634 249.76 146.379L256.175 144.163C256.264 144.144 256.363 144.134 256.442 144.134C256.521 144.134 256.609 144.134 256.678 144.134C257.379 144.134 257.843 144.34 258.08 144.742C258.317 145.143 258.435 145.673 258.435 146.33L258.406 154.045H262.274C262.876 154.045 263.37 154.221 263.745 154.574C264.12 154.927 264.307 155.466 264.307 156.172V161.584C264.307 162.368 264.12 162.946 263.745 163.309C263.37 163.672 262.876 163.858 262.274 163.858H258.406L258.435 187.543C258.435 188.259 258.228 188.788 257.813 189.161C257.399 189.533 256.827 189.71 256.086 189.71H249.701C248.25 189.71 247.53 188.994 247.53 187.553L247.5 163.868H244.589C243.138 163.868 242.418 163.113 242.418 161.594V156.182C242.418 154.761 243.138 154.045 244.589 154.045H247.5L247.53 148.506Z" fill="white"/>
<path d="M267.446 188.641C267.386 188.376 267.436 188.121 267.584 187.866C267.732 187.612 267.87 187.406 267.979 187.239L279.219 171.495L268.571 156.457C268.383 156.211 268.225 155.947 268.087 155.672C267.959 155.388 267.9 155.133 267.929 154.898C267.959 154.663 268.077 154.466 268.294 154.31C268.511 154.153 268.877 154.074 269.38 154.074H278.252C278.568 154.074 278.854 154.212 279.081 154.486C279.318 154.761 279.585 155.104 279.89 155.535L285.289 164.211C285.644 163.701 286.059 163.064 286.532 162.29C287.006 161.515 287.49 160.711 287.983 159.878C288.486 159.045 288.96 158.241 289.424 157.447C289.888 156.653 290.283 155.996 290.628 155.457C290.944 154.966 291.25 154.623 291.516 154.408C291.793 154.192 292.118 154.084 292.493 154.084H301.444C301.671 154.084 301.879 154.133 302.076 154.221C302.273 154.31 302.431 154.447 302.54 154.614C302.648 154.78 302.698 154.976 302.678 155.202C302.658 155.427 302.54 155.672 302.313 155.927L291.269 171.416L302.264 186.68C302.491 187.004 302.678 187.337 302.846 187.69C303.004 188.043 303.073 188.376 303.053 188.67C303.033 188.974 302.895 189.219 302.639 189.415C302.382 189.611 301.958 189.709 301.356 189.709H292.197C291.348 189.709 290.717 189.219 290.302 188.249L285.269 179.269L280.187 188.366C279.979 188.778 279.713 189.102 279.397 189.347C279.071 189.592 278.765 189.709 278.459 189.709H268.63C268.363 189.709 268.136 189.651 267.949 189.543C267.761 189.435 267.604 189.229 267.465 188.925L267.446 188.641Z" fill="white"/>
<path d="M313.465 178.622C313.978 179.132 314.521 179.553 315.113 179.896C315.705 180.24 316.278 180.524 316.82 180.739C317.363 180.955 317.847 181.112 318.261 181.2C318.676 181.298 318.962 181.337 319.11 181.337C319.465 181.337 319.929 181.328 320.482 181.298C321.035 181.269 321.567 181.19 322.081 181.043C322.594 180.906 323.028 180.671 323.393 180.357C323.758 180.043 323.946 179.592 323.946 179.014C323.946 178.495 323.837 178.073 323.63 177.769C323.423 177.455 323.127 177.2 322.722 176.985C322.327 176.769 321.844 176.573 321.271 176.406C320.699 176.24 320.048 176.044 319.337 175.818C317.077 175.22 315.212 174.495 313.741 173.652C312.271 172.809 311.106 171.867 310.248 170.828C309.389 169.789 308.797 168.672 308.452 167.476C308.116 166.28 307.938 165.015 307.938 163.691C307.938 162.143 308.254 160.731 308.866 159.456C309.488 158.182 310.376 157.094 311.521 156.192C312.666 155.29 314.047 154.584 315.646 154.084C317.245 153.584 319.021 153.339 320.985 153.339C322.169 153.339 323.285 153.437 324.321 153.633C325.357 153.829 326.344 154.143 327.291 154.555C328.229 154.976 329.147 155.515 330.045 156.182C330.943 156.849 331.831 157.633 332.719 158.554C333.035 158.927 333.203 159.28 333.213 159.603C333.223 159.927 333.006 160.28 332.581 160.652C331.851 161.25 331.14 161.839 330.479 162.417C329.808 162.995 329.117 163.642 328.407 164.358C328.18 164.544 327.953 164.662 327.726 164.711C327.499 164.76 327.282 164.75 327.074 164.701C326.867 164.642 326.67 164.554 326.482 164.417C326.295 164.289 326.127 164.123 325.969 163.937C325.308 163.211 324.558 162.711 323.709 162.466C322.86 162.211 322.071 162.084 321.34 162.084C320.413 162.084 319.682 162.241 319.14 162.564C318.597 162.888 318.34 163.368 318.38 164.025C318.419 164.515 318.597 164.887 318.932 165.162C319.258 165.436 319.663 165.652 320.146 165.819C320.63 165.985 321.133 166.123 321.676 166.231C322.209 166.338 322.702 166.446 323.156 166.583C324.854 167.123 326.403 167.721 327.815 168.348C329.226 168.985 330.45 169.77 331.486 170.691C332.522 171.613 333.331 172.73 333.904 174.014C334.476 175.308 334.762 176.877 334.762 178.73C334.762 180.583 334.387 182.239 333.647 183.7C332.907 185.161 331.881 186.386 330.578 187.376C329.275 188.366 327.736 189.121 325.959 189.651C324.183 190.18 322.258 190.435 320.206 190.435C319.041 190.435 317.847 190.337 316.643 190.131C315.439 189.925 314.264 189.592 313.139 189.131C312.004 188.67 310.939 188.082 309.922 187.367C308.906 186.651 307.998 185.769 307.208 184.739C307.001 184.475 306.843 184.2 306.744 183.916C306.645 183.631 306.596 183.337 306.606 183.063C306.616 182.779 306.675 182.524 306.774 182.288C306.872 182.053 307.04 181.857 307.267 181.681L310.909 178.063C311.363 177.691 311.758 177.553 312.113 177.671C312.468 177.779 312.922 178.093 313.465 178.622Z" fill="white"/>
</svg>
